PathFileType	4	(X/Y/Z)	output.trc
DataRate	CameraRate	NumFrames	NumMarkers	Units	OrigDataRate	OrigDataStartFrame	OrigNumFrames
250.00	250.00	14	36	m	250.00	1417	2266
Frame#	Time	LPSIS_X	LPSIS_Y	LPSIS_Z	LASIS_X	LASIS_Y	LASIS_Z	LTH1_X	LTH1_Y	LTH1_Z	LTH2_X	LTH2_Y	LTH2_Z	LTH3_X	LTH3_Y	LTH3_Z	LTH4_X	LTH4_Y	LTH4_Z	LLFE_X	LLFE_Y	LLFE_Z	LMFE_X	LMFE_Y	LMFE_Z	LSH1_X	LSH1_Y	LSH1_Z	LSH2_X	LSH2_Y	LSH2_Z	LSH3_X	LSH3_Y	LSH3_Z	LSH4_X	LSH4_Y	LSH4_Z	LLMAL_X	LLMAL_Y	LLMAL_Z	LMMAL_X	LMMAL_Y	LMMAL_Z	LCAL_X	LCAL_Y	LCAL_Z	LMTP5_X	LMTP5_Y	LMTP5_Z	LTOE_X	LTOE_Y	LTOE_Z	LMTP1_X	LMTP1_Y	LMTP1_Z	RPSIS_X	RPSIS_Y	RPSIS_Z	RASIS_X	RASIS_Y	RASIS_Z	RTH1_X	RTH1_Y	RTH1_Z	RTH2_X	RTH2_Y	RTH2_Z	RTH3_X	RTH3_Y	RTH3_Z	RTH4_X	RTH4_Y	RTH4_Z	RLFE_X	RLFE_Y	RLFE_Z	RMFE_X	RMFE_Y	RMFE_Z	RSH1_X	RSH1_Y	RSH1_Z	RSH2_X	RSH2_Y	RSH2_Z	RSH3_X	RSH3_Y	RSH3_Z	RSH4_X	RSH4_Y	RSH4_Z	RLMAL_X	RLMAL_Y	RLMAL_Z	RMMAL_X	RMMAL_Y	RMMAL_Z	RCAL_X	RCAL_Y	RCAL_Z	RMTP1_X	RMTP1_Y	RMTP1_Z	RTOE_X	RTOE_Y	RTOE_Z	RMTP5_X	RMTP5_Y	RMTP5_Z

1417	5.66400	nan	nan	nan	2922.62378	475.02219	962.57074	nan	nan	nan	nan	nan	nan	nan	nan	nan	2982.61035	563.63507	729.25647	nan	nan	nan	3008.34033	535.64404	512.75476	2963.70020	467.73575	376.34390	nan	nan	nan	nan	nan	nan	nan	nan	nan	2876.78027	283.88373	247.21519	nan	nan	nan	2857.40723	190.52588	251.58640	2889.73193	316.96136	105.75979	2957.24707	311.06256	78.14095	nan	nan	nan	nan	nan	nan	3136.08765	337.51270	982.63269	3170.31567	264.96152	837.89648	nan	nan	nan	3192.40015	269.76221	678.64307	3198.45532	342.53632	762.31378	3189.61475	270.89536	499.87808	nan	nan	nan	3164.75488	180.62514	330.79492	3205.30640	193.51550	293.30167	nan	nan	nan	3195.03882	222.73418	277.86920	3127.66699	161.28888	107.91010	3079.06177	229.79860	108.56411	3058.03369	145.74191	51.04200	3166.54785	327.82816	39.57523	3218.59985	317.19427	49.39819	3238.16675	241.90480	37.11721
1418	5.66800	nan	nan	nan	2924.06299	475.90417	963.42120	nan	nan	nan	nan	nan	nan	nan	nan	nan	2983.37500	566.06287	731.05920	nan	nan	nan	3009.89258	539.69165	514.17682	2969.01904	471.00287	374.43393	nan	nan	nan	nan	nan	nan	nan	nan	nan	2884.26025	287.93777	244.57719	nan	nan	nan	2865.96802	194.66061	247.23422	2900.55078	322.17032	103.61591	2974.50610	318.12015	80.45588	nan	nan	nan	3172.46533	267.25989	838.23090	3138.61426	340.47684	983.00922	nan	nan	nan	nan	nan	nan	3193.81567	271.32224	678.88989	nan	nan	nan	3190.28857	271.43207	500.13348	nan	nan	nan	nan	nan	nan	3205.66895	193.68297	293.59476	nan	nan	nan	3197.26514	222.91986	278.88235	3127.79272	161.42781	108.30741	3079.05005	229.94348	108.99037	3058.09131	145.84659	51.36934	3166.62231	327.87531	39.64310	3218.65259	317.25720	49.39087	3238.24634	241.93648	37.18029
1419	5.67200	2897.15137	295.57959	987.85138	2925.41162	476.80505	964.12805	nan	nan	nan	nan	nan	nan	nan	nan	nan	2984.20532	568.50757	732.91364	2969.11133	439.43866	560.68781	3011.40649	543.84106	515.39374	2973.18823	475.31836	373.69781	nan	nan	nan	nan	nan	nan	nan	nan	nan	2890.91016	292.83426	241.58574	nan	nan	nan	2873.80005	198.81116	243.16908	2907.37695	325.40500	102.90919	2980.42505	323.06982	78.25308	nan	nan	nan	nan	nan	nan	3141.07739	343.67111	983.56232	3174.62378	269.52664	838.56842	nan	nan	nan	3195.18848	272.85269	679.08417	3201.48535	346.48901	761.87061	nan	nan	nan	2927.94800	227.22765	508.97598	3165.39844	180.98363	331.45108	3206.01099	193.86137	293.90036	nan	nan	nan	3197.55005	223.00536	279.20508	nan	nan	nan	3079.17188	230.10059	109.34782	3058.12354	145.91922	51.74660	3166.68188	327.96432	39.66647	3218.65698	317.29651	49.33058	3238.24561	241.96834	37.18451
1420	5.67600	2899.90527	296.26682	988.64612	2926.73047	477.71509	964.82184	nan	nan	nan	nan	nan	nan	nan	nan	nan	2984.87793	570.91943	734.61053	nan	nan	nan	3012.71069	547.81378	516.74097	2977.56274	479.79477	372.80023	nan	nan	nan	nan	nan	nan	2940.22974	444.64999	408.19064	2898.39038	297.06955	238.74568	nan	nan	nan	2880.07031	199.70711	239.49419	2917.80811	331.12485	100.86309	2996.91431	330.88144	80.29418	nan	nan	nan	nan	nan	nan	3143.91235	347.25742	982.67010	nan	nan	nan	2936.11548	263.96677	546.58594	nan	nan	nan	nan	nan	nan	3191.43506	272.30472	500.49286	nan	nan	nan	3165.62817	181.15152	331.75327	3206.35156	193.98984	294.25183	nan	nan	nan	3197.86572	223.10655	279.55923	nan	nan	nan	nan	nan	nan	3058.23926	146.02193	52.18649	3166.67578	328.02209	39.64513	3218.62622	317.34155	49.26348	3238.25269	241.98833	37.17673
1421	5.68000	nan	nan	nan	2928.10962	478.62241	965.53204	nan	nan	nan	nan	nan	nan	nan	nan	nan	2985.37427	573.31494	736.16205	nan	nan	nan	3025.03223	558.16370	513.37732	2981.59839	484.14230	371.99225	nan	nan	nan	nan	nan	nan	2943.38965	448.97726	406.47595	2905.87402	301.47784	235.79108	nan	nan	nan	2887.60107	205.77101	235.04366	2928.10254	337.14526	98.79160	3007.97559	337.94528	80.43211	3022.21436	279.73984	92.19804	nan	nan	nan	3146.34741	349.97717	982.84729	2901.51074	258.80042	618.97223	nan	nan	nan	nan	nan	nan	nan	nan	nan	3191.94336	272.71378	500.72339	nan	nan	nan	nan	nan	nan	3206.57446	194.11034	294.61594	nan	nan	nan	3198.19409	223.22229	279.90164	nan	nan	nan	nan	nan	nan	3058.29175	146.08321	52.59381	3166.67456	328.07986	39.63339	3218.66992	317.40485	49.21674	3238.19287	242.02766	37.11856
1422	5.68400	2907.38550	299.20169	989.92047	2929.61133	479.51968	966.30103	nan	nan	nan	nan	nan	nan	nan	nan	nan	2985.99463	575.79071	737.76257	3012.97681	551.31152	519.53540	nan	nan	nan	2983.79517	488.37534	371.14117	nan	nan	nan	nan	nan	nan	2946.53125	453.33429	404.72061	2913.28442	305.92838	232.78642	2988.85376	289.57538	244.67812	2897.61597	211.30046	230.03020	2951.33008	350.82135	90.86079	3018.43652	345.48178	80.45108	3033.19336	287.26764	91.90087	nan	nan	nan	3148.82300	352.59927	983.07684	nan	nan	nan	2903.13159	260.77173	619.46252	nan	nan	nan	2939.54370	266.26483	546.77649	nan	nan	nan	nan	nan	nan	3166.06885	181.45343	332.47107	3206.83496	194.29092	294.96356	nan	nan	nan	3198.45435	223.33946	280.23010	3128.10254	161.96062	109.53548	3085.63086	232.79323	108.49590	3058.38086	146.10634	52.87835	3166.68970	328.13843	39.61766	3218.68945	317.44159	49.14686	3238.16528	242.04376	37.08554
1423	5.68800	2910.13672	299.91861	990.74078	2931.00854	480.39838	967.01782	nan	nan	nan	nan	nan	nan	nan	nan	nan	2986.61694	578.21619	739.35016	nan	nan	nan	3016.36279	559.47516	520.12891	2985.43945	491.12582	370.22449	nan	nan	nan	nan	nan	nan	2949.48975	457.49487	402.84460	2920.65845	310.61572	229.72778	2996.72339	292.93604	243.29080	2907.02930	215.90752	224.92761	nan	nan	nan	3028.68970	353.48776	80.43954	3044.03467	295.39011	91.46916	nan	nan	nan	3151.27173	355.33179	983.34216	3182.96729	278.66129	839.93927	nan	nan	nan	nan	nan	nan	nan	nan	nan	3192.94922	273.50916	501.28751	nan	nan	nan	3166.30933	181.57855	332.89130	3207.09351	194.40105	295.36813	nan	nan	nan	3196.65161	223.31493	279.71008	nan	nan	nan	3085.73975	232.93880	108.87009	3058.51587	146.18944	53.20831	3166.73218	328.17905	39.64735	3218.67188	317.52628	49.06739	3238.16528	242.08754	37.08397
1424	5.69200	2909.36768	299.19760	991.83264	2932.39966	481.33408	967.65765	nan	nan	nan	3185.00293	280.99268	840.25787	nan	nan	nan	nan	nan	nan	nan	nan	nan	3028.23071	569.40796	516.81915	2992.26904	496.81033	369.58536	nan	nan	nan	nan	nan	nan	2952.38135	461.62741	400.89334	2928.11401	315.38531	226.45821	nan	nan	nan	2915.85205	220.37689	220.05449	2961.64258	359.34467	90.99873	3038.37402	361.89053	80.22609	nan	nan	nan	nan	nan	nan	3153.61450	358.07532	983.58813	nan	nan	nan	2942.90479	268.44528	546.96259	nan	nan	nan	2906.00562	264.62399	620.31964	3193.39453	273.81400	501.56396	nan	nan	nan	3166.55298	181.70137	333.28781	3207.36621	194.49976	295.73029	nan	nan	nan	3196.81372	223.38794	279.96942	nan	nan	nan	3085.84790	233.06172	109.15427	3058.63208	146.27905	53.55019	3166.75439	328.24744	39.66858	3218.71948	317.58899	49.05402	3238.22119	242.12436	37.11185
1425	5.69600	nan	nan	nan	nan	nan	nan	nan	nan	nan	3187.09888	283.32867	840.57556	nan	nan	nan	nan	nan	nan	nan	nan	nan	3018.27222	566.60864	522.31494	2991.48169	498.18912	369.94717	nan	nan	nan	nan	nan	nan	2955.21118	465.72281	398.99524	2933.84863	316.15323	225.38568	nan	nan	nan	2922.42749	223.47665	215.81876	2970.82837	366.48489	88.84592	3047.77637	370.66574	80.18601	nan	nan	nan	2914.09204	300.61237	992.17584	nan	nan	nan	nan	nan	nan	nan	nan	nan	2944.49951	583.19830	724.36621	nan	nan	nan	3193.79468	274.17462	501.85779	nan	nan	nan	3166.71484	181.80345	333.61737	3207.58887	194.56384	296.14938	nan	nan	nan	3199.06836	223.62105	281.14667	nan	nan	nan	3085.93994	233.14946	109.44820	3058.75391	146.33855	53.91094	3166.76074	328.27280	39.66019	3218.75073	317.63116	49.01369	3238.19312	242.14053	37.10073
1426	5.70000	nan	nan	nan	2935.03687	483.27866	968.74481	nan	nan	nan	3189.06738	285.70874	840.85272	nan	nan	nan	nan	nan	nan	nan	nan	nan	3030.24316	576.51959	518.76849	nan	nan	nan	nan	nan	nan	nan	nan	nan	2957.96606	469.70319	397.09756	2941.28149	323.81329	220.34453	nan	nan	nan	2933.16748	229.50035	210.30896	2979.63354	373.90591	86.80393	3056.67993	379.90143	79.86466	3074.75195	322.35413	89.97955	2916.80469	301.51648	992.74908	nan	nan	nan	nan	nan	nan	nan	nan	nan	2945.20215	585.55457	725.84149	nan	nan	nan	nan	nan	nan	2946.11548	270.59344	547.07971	3167.01685	181.92664	334.08896	3207.84424	194.67410	296.60553	nan	nan	nan	3199.19702	223.70190	281.45615	nan	nan	nan	3086.03955	233.26277	109.69226	3058.86597	146.42686	54.24162	3166.76099	328.30280	39.65364	3218.73242	317.63025	48.96103	3238.20312	242.12587	37.11512
1427	5.70400	nan	nan	nan	2936.39111	484.35294	969.25537	3218.34814	362.77826	762.08459	nan	nan	nan	nan	nan	nan	nan	nan	nan	2974.99731	440.27609	560.31061	nan	nan	nan	2998.39819	506.43820	367.00867	nan	nan	nan	nan	nan	nan	2960.66382	473.28336	395.27145	2948.61646	328.91550	217.00435	nan	nan	nan	2941.61816	234.44307	205.25204	2988.30176	381.64340	84.75425	3065.18140	389.43430	79.72457	3081.71118	332.04294	88.32632	2921.21216	303.59116	993.18726	nan	nan	nan	nan	nan	nan	nan	nan	nan	2945.96240	587.83691	727.29535	nan	nan	nan	nan	nan	nan	2947.83691	271.69257	547.12726	3167.22266	182.00285	334.51849	3208.04956	194.74361	296.96246	nan	nan	nan	3199.35352	223.73222	281.84363	nan	nan	nan	3086.22583	233.39278	109.99229	3058.94922	146.48538	54.55805	3165.78882	328.08197	38.44882	3218.71191	317.65454	48.92823	3238.20605	242.13380	37.11707
1428	5.70800	3015.99438	344.34393	968.34259	2937.84302	485.53384	969.81671	3219.80029	364.80594	761.86450	nan	nan	nan	nan	nan	nan	nan	nan	nan	nan	nan	nan	3031.29224	582.95874	520.85944	3001.78101	510.43408	365.51358	nan	nan	nan	nan	nan	nan	2963.48413	476.89236	393.59109	2955.96313	334.15695	213.66086	nan	nan	nan	2948.89722	238.04327	200.69630	2996.33545	389.65030	82.80387	3073.47363	399.35095	79.57896	3093.78784	342.49500	88.50208	nan	nan	nan	nan	nan	nan	nan	nan	nan	nan	nan	nan	2946.45557	590.05957	728.61584	nan	nan	nan	nan	nan	nan	2949.52319	272.77734	547.14252	nan	nan	nan	3208.21289	194.79951	297.28873	nan	nan	nan	3197.54150	223.70190	281.49771	nan	nan	nan	3086.41113	233.52280	110.29321	3059.16431	146.54179	55.00681	3165.77686	328.11935	38.43994	3218.76514	317.68082	48.96700	3238.27856	242.14510	37.17306
1429	5.71200	3019.13403	345.53638	968.99463	2939.27344	486.79584	970.36279	3221.27344	366.90225	761.65009	nan	nan	nan	nan	nan	nan	nan	nan	nan	2921.29688	603.09174	824.80524	nan	nan	nan	nan	nan	nan	nan	nan	nan	nan	nan	nan	2966.21899	480.35995	391.74414	2963.30786	339.56064	210.32629	nan	nan	nan	2955.86377	242.85417	196.09277	3004.38916	397.95972	80.81163	3081.22729	409.58334	79.29526	3102.86328	353.12546	87.78824	nan	nan	nan	nan	nan	nan	nan	nan	nan	nan	nan	nan	2947.15381	592.27350	729.95203	nan	nan	nan	nan	nan	nan	2951.18164	273.93320	547.20605	3167.61230	182.15350	335.34506	3208.40186	194.88008	297.62930	nan	nan	nan	3197.76440	223.74190	281.91928	nan	nan	nan	3086.51611	233.64154	110.59724	3057.15796	145.23355	55.95499	3165.80176	328.15179	38.47766	3218.80518	317.68384	48.99968	3238.32080	242.14969	37.25512
1430	5.71600	3022.36401	346.90863	969.42529	2940.71191	488.11368	970.82452	nan	nan	nan	2923.36841	604.17969	825.47784	nan	nan	nan	nan	nan	nan	nan	nan	nan	3021.51074	582.75159	527.01215	2976.29492	441.04300	560.60840	nan	nan	nan	nan	nan	nan	nan	nan	nan	2972.84863	345.90479	206.91441	nan	nan	nan	2969.61084	249.24098	191.03365	3012.13135	406.60187	78.92062	3088.73047	420.12756	78.96354	3111.47241	364.09122	86.70932	nan	nan	nan	nan	nan	nan	nan	nan	nan	nan	nan	nan	2947.69946	594.37537	731.17688	nan	nan	nan	nan	nan	nan	2952.82837	275.05637	547.16974	3167.79150	182.25548	335.71341	3208.58203	194.93607	298.06067	nan	nan	nan	3197.91431	223.82722	282.24911	nan	nan	nan	3086.60034	233.74702	110.85193	nan	nan	nan	3165.74731	328.21149	38.45975	3218.83008	317.72064	48.99312	3238.34961	242.14044	37.29804
